<?xml version="1.0" encoding="UTF-8" standalone="no"?>
<svg width="2038" xmlns="http://www.w3.org/2000/svg" viewBox="0 0 496.255 608.728" height="2500">
 <path d="m273.81 52.973c40-52.716 95.6-52.973 95.6-52.973s8.271 49.562-31.463 97.306c-42.426 50.98-90.649 42.638-90.649 42.638s-9.055-40.094 26.512-86.971zm-21.43 121.69c20.576 0 58.764-28.284 108.47-28.284 85.562 0 119.22 60.883 119.22 60.883s-65.833 33.659-65.833 115.33c0 92.133 82.01 123.88 82.01 123.88s-57.328 161.36-134.76 161.36c-35.565 0-63.215-23.967-100.69-23.967-38.188 0-76.084 24.861-100.77 24.861-70.7 0.01-160.03-153.05-160.03-276.09 0-121.05 75.612-184.55 146.53-184.55 46.105 0 81.883 26.588 105.85 26.588z" fill="#999"/>
</svg>
