<svg xmlns="http://www.w3.org/2000/svg" width="141" height="21" viewBox="0 0 141 21">
    <g fill="none" fill-rule="evenodd">
        <path fill="#7C7B7B" d="M22.784 17.293c.29.448.631.842 1.023 1.178.392.337.82.614 1.284.831.466.216.952.38 1.46.494a7.46 7.46 0 0 0 1.59.168c.683 0 1.319-.088 1.905-.264a4.48 4.48 0 0 0 1.526-.774c.428-.343.762-.76 1-1.255.241-.494.36-1.045.36-1.654 0-.562-.08-1.045-.24-1.447a2.578 2.578 0 0 0-.685-1.003 3.656 3.656 0 0 0-1.056-.65 8.745 8.745 0 0 0-1.439-.434l-2.395-.547a8.832 8.832 0 0 1-1.48-.455 4.445 4.445 0 0 1-1.165-.708 2.89 2.89 0 0 1-.794-1.095c-.19-.44-.285-.966-.285-1.573 0-.608.116-1.167.35-1.675.231-.511.562-.948.99-1.313a4.434 4.434 0 0 1 1.524-.833A6.245 6.245 0 0 1 28.184 4c.437 0 .851.031 1.243.09.39.061.764.164 1.12.312.357.147.694.343 1.013.584.32.244.61.539.871.883l-.675.72a3.816 3.816 0 0 0-.73-.712 3.98 3.98 0 0 0-.837-.48 4.648 4.648 0 0 0-.938-.27 5.824 5.824 0 0 0-1.045-.091c-.537 0-1.033.072-1.492.216a3.653 3.653 0 0 0-1.197.628 2.909 2.909 0 0 0-.794.968 2.71 2.71 0 0 0-.283 1.243c0 .44.072.822.216 1.14.145.32.35.59.61.81.262.221.574.404.937.547.363.146.784.271 1.263.376l2.396.526a9.923 9.923 0 0 1 1.623.512c.486.207.917.48 1.296.822.377.341.675.775.892 1.3.218.524.327 1.15.327 1.88 0 .762-.142 1.453-.425 2.076a4.402 4.402 0 0 1-1.208 1.585 5.501 5.501 0 0 1-1.862.992 7.771 7.771 0 0 1-2.363.343 9.522 9.522 0 0 1-1.82-.171 7.302 7.302 0 0 1-1.676-.535A6.13 6.13 0 0 1 22 17.975l.784-.682zM38.58 9.272a8.577 8.577 0 0 1 1.644-2.763A7.408 7.408 0 0 1 45.843 4a7.76 7.76 0 0 1 1.493.14c.48.094.934.229 1.364.407a6.36 6.36 0 0 1 1.225.673A6.64 6.64 0 0 1 51 6.162l-.624.83a6.741 6.741 0 0 0-.934-.817 5.514 5.514 0 0 0-1.075-.603c-.38-.158-.78-.28-1.202-.363a6.747 6.747 0 0 0-1.3-.125c-.96 0-1.86.19-2.697.568a6.502 6.502 0 0 0-2.182 1.603 7.526 7.526 0 0 0-1.428 2.39 8.111 8.111 0 0 0-.505 2.855c0 1.018.168 1.98.505 2.89.336.911.814 1.707 1.428 2.39a6.572 6.572 0 0 0 2.182 1.592c.837.38 1.737.568 2.696.568.444 0 .873-.037 1.289-.112a6.49 6.49 0 0 0 1.204-.336c.387-.15.747-.334 1.085-.55.337-.217.648-.46.934-.73l.624.83a6.618 6.618 0 0 1-2.3 1.464c-.43.16-.884.284-1.364.369a8.763 8.763 0 0 1-1.494.125 7.654 7.654 0 0 1-3.115-.632 7.44 7.44 0 0 1-2.503-1.783A8.199 8.199 0 0 1 38.58 15.9a9.258 9.258 0 0 1-.58-3.298c0-1.17.193-2.28.58-3.329M57 21V4h10v1.015h-8.932v6.753h7.21v.99h-7.21v7.227H67V21zM72 21V4h.361l10.575 14.284V4H84v17h-.383L73.043 6.738V21zM90 5.015V4h12v1.015h-5.471V21h-1.06V5.015zM107 21h1V4h-1zM120.01 6.102l-3.756 9.443h7.468l-3.712-9.443zM113 21l6.815-17h.435L127 21h-1.15l-1.737-4.464h-8.248L114.106 21H113zM132 21V4h1.081v15.985H141V21z"/>
        <path fill="#486F59" d="M9.763 0h-.461L0 20.988h1.174L9.51 2.018 17.779 21H19z"/>
    </g>
</svg>
