<?xml version="1.0" encoding="UTF-8" standalone="no"?>
<svg xmlns="http://www.w3.org/2000/svg" height="256px" width="256px" version="1.1" preserveAspectRatio="xMidYMid" xmlns:xlink="http://www.w3.org/1999/xlink" viewBox="0 0 256 256">
 <path d="m0 222.99c0 18.23 14.779 33.01 33.009 33.01h189.98c18.23 0 33.01-14.78 33.01-33.01v-189.98c0-18.233-14.78-33.01-33.01-33.01h-189.98c-18.233 0-33.01 14.779-33.01 33.009v189.98z" fill="#563D7C"/>
 <path d="m106.16 113.24v-36.255h31.91c3.04 0 5.97 0.253 8.79 0.759 2.82 0.507 5.32 1.411 7.49 2.714s3.91 3.112 5.21 5.427c1.3 2.316 1.95 5.283 1.95 8.901 0 6.514-1.95 11.214-5.86 14.114-3.9 2.89-8.9 4.34-14.98 4.34h-34.51zm-34.085-62.74v155h75.115c6.94 0 13.71-0.87 20.29-2.61 6.59-1.73 12.45-4.41 17.59-8.03s9.22-8.28 12.26-14 4.56-12.48 4.56-20.3c0-9.69-2.35-17.98-7.05-24.85-4.71-6.88-11.83-11.69-21.39-14.44 6.95-3.33 12.2-7.6 15.74-12.81 3.55-5.21 5.32-11.72 5.32-19.536 0-7.236-1.19-13.314-3.58-18.235s-5.75-8.864-10.09-11.831c-4.35-2.967-9.56-5.102-15.63-6.404-6.08-1.303-12.81-1.954-20.19-1.954h-72.945zm34.085 128.52v-42.55h37.12c7.38 0 13.31 1.7 17.8 5.1s6.73 9.08 6.73 17.04c0 4.05-0.69 7.38-2.06 9.99-1.38 2.6-3.22 4.66-5.54 6.18-2.31 1.52-4.99 2.61-8.03 3.26s-6.22 0.98-9.55 0.98h-36.47z" fill="#fff"/>
</svg>
