<?xml version="1.0" encoding="UTF-8" standalone="no"?>
<svg xmlns="http://www.w3.org/2000/svg" viewBox="0 0 512 512">
 <title>HTML5 Logo</title>
 <polygon points="107.64 470.88 74.633 100.62 437.37 100.62 404.32 470.82 255.78 512" fill="#E44D26"/>
 <polygon points="256 480.52 376.03 447.25 404.27 130.89 256 130.89" fill="#F16529"/>
 <polygon points="256 268.22 195.91 268.22 191.76 221.72 256 221.72 256 176.3 255.84 176.3 142.13 176.3 143.22 188.49 154.38 313.63 256 313.63" fill="#EBEBEB"/>
 <polygon points="256 386.15 255.8 386.21 205.23 372.55 201.99 336.33 177.42 336.33 156.41 336.33 162.77 407.63 255.79 433.46 256 433.4" fill="#EBEBEB"/>
 <path d="m108.38 0h23.077v22.8h21.11v-22.8h23.078v69.044h-23.08v-23.12h-21.11v23.12h-23.077v-69.044z"/>
 <path d="m205.99 22.896h-20.316v-22.896h63.72v22.896h-20.325v46.148h-23.078v-46.148z"/>
 <path d="m259.51 0h24.063l14.802 24.26 14.79-24.26h24.072v69.044h-22.982v-34.222l-15.877 24.549h-0.397l-15.888-24.549v34.222h-22.58v-69.044z"/>
 <path d="m348.72 0h23.084v46.222h32.453v22.822h-55.53v-69.044z"/>
 <polygon points="255.84 268.22 255.84 313.63 311.76 313.63 306.49 372.52 255.84 386.19 255.84 433.44 348.94 407.63 349.62 399.96 360.29 280.41 361.4 268.22 349.16 268.22" fill="#fff"/>
 <polygon points="255.84 176.3 255.84 204.51 255.84 221.6 255.84 221.72 365.38 221.72 365.38 221.72 365.53 221.72 366.44 211.51 368.51 188.49 369.6 176.3" fill="#fff"/>
</svg>
